<!-- Generated by IcoMoon.io -->
<svg version="1.1" xmlns="http://www.w3.org/2000/svg" width="640" height="640" viewBox="0 0 640 640">
<title></title>
<g id="icomoon-ignore">
</g>
<path fill="#000" d="M93.76 546.24c-60.273-58.271-97.692-139.851-97.692-230.173 0-176.731 143.269-320 320-320 90.321 0 171.902 37.42 230.086 97.602l0.086 0.090c55.578 57.487 89.828 135.897 89.828 222.307 0 176.731-143.269 320-320 320-86.41 0-164.821-34.249-222.398-89.914l0.090 0.086zM138.88 501.12c46.353 46.352 110.388 75.022 181.12 75.022 141.464 0 256.142-114.679 256.142-256.142 0-70.732-28.67-134.767-75.022-181.12v0c-46.353-46.352-110.388-75.023-181.12-75.023-141.464 0-256.142 114.679-256.142 256.142 0 70.732 28.67 134.767 75.023 181.12v0zM455.68 229.44l-90.56 90.56 90.56 90.56-45.12 45.12-90.56-90.56-90.56 90.56-45.12-45.12 90.56-90.56-90.56-90.56 45.12-45.12 90.56 90.56 90.56-90.56 45.12 45.12z"></path>
</svg>
