<?xml version="1.0" encoding="iso-8859-1"?>
<!-- Generator: Adobe Illustrator 19.0.0, SVG Export Plug-In . SVG Version: 6.00 Build 0)  -->
<svg version="1.1" id="Layer_1" xmlns="http://www.w3.org/2000/svg" xmlns:xlink="http://www.w3.org/1999/xlink" x="0px" y="0px"
	 viewBox="0 0 512 512" style="enable-background:new 0 0 512 512;" xml:space="preserve">
<g>
	<g>
		<g>
			<path d="M326.445,213.333h-21.751c38.426,22.11,64.418,63.505,64.418,110.933c0,47.428-25.993,88.823-64.418,110.933h183.885
				V213.333h-93.867H326.445z"/>
			<path d="M352.045,324.267c0-61.167-49.766-110.933-110.933-110.933h-8.533V435.2h8.533
				C302.279,435.2,352.045,385.434,352.045,324.267z"/>
			<path d="M462.97,119.467h-17.058V85.333h-34.133V0h-102.4v17.067h-102.4c-37.615,0-71.287,25.207-81.894,61.312
				c-2.261,7.723-0.785,15.855,4.045,22.323c4.873,6.502,12.314,10.232,20.42,10.232h0.333c11.17,0,21.018-7.501,24.499-18.671
				c4.471-14.353,17.579-23.996,32.597-23.996h102.4v17.067h-34.133v34.133h-17.058c-14.123,0-25.609,11.494-25.609,25.609v51.191
				h93.867v-59.733h17.067v59.733h34.133v-59.733h17.067v59.733h93.867v-51.191C488.579,130.961,477.093,119.467,462.97,119.467z
				 M428.845,119.467h-34.133h-68.267h-34.133V102.4h17.067h102.4h17.067V119.467z"/>
			<path d="M232.579,486.391c0,14.114,11.486,25.609,25.609,25.609H462.97c14.123,0,25.609-11.494,25.609-25.609v-34.125h-256
				V486.391z"/>
			<path d="M92.741,244.017c14.319-14.319,15.898-36.599,3.755-52.992c-8.201-11.076-17.621-28.083-15.881-46.259
				c0.324-3.465-1.485-6.793-4.582-8.388c-3.098-1.587-6.861-1.161-9.498,1.126c-1.485,1.28-36.369,31.812-42.598,71.535
				c-2.765,17.673,5.751,34.321,21.7,42.436c6.007,3.046,12.365,4.54,18.637,4.54C74.676,256.015,84.848,251.91,92.741,244.017z"/>
			<path d="M183.012,144.766c0.333-3.465-1.485-6.793-4.582-8.388c-3.089-1.587-6.852-1.161-9.489,1.118
				c-1.485,1.289-36.369,31.821-42.598,71.543c-2.773,17.673,5.743,34.321,21.7,42.436c5.999,3.046,12.356,4.54,18.628,4.54
				c10.411,0,20.574-4.105,28.467-11.998c14.319-14.319,15.906-36.599,3.763-52.992
				C190.692,179.949,181.271,162.942,183.012,144.766z"/>
			<path d="M119.107,272.766c0.333-3.465-1.485-6.793-4.582-8.388c-3.098-1.596-6.852-1.161-9.489,1.118
				c-1.485,1.289-36.369,31.821-42.598,71.543c-2.773,17.673,5.743,34.321,21.7,42.436c5.999,3.046,12.356,4.54,18.628,4.54
				c10.411,0,20.574-4.104,28.467-11.998c14.319-14.319,15.906-36.599,3.763-52.992
				C126.787,307.949,117.367,290.942,119.107,272.766z"/>
		</g>
	</g>
</g>
<g>
</g>
<g>
</g>
<g>
</g>
<g>
</g>
<g>
</g>
<g>
</g>
<g>
</g>
<g>
</g>
<g>
</g>
<g>
</g>
<g>
</g>
<g>
</g>
<g>
</g>
<g>
</g>
<g>
</g>
</svg>
