<!-- Generated by IcoMoon.io -->
<svg version="1.1" xmlns="http://www.w3.org/2000/svg" width="768" height="768" viewBox="0 0 768 768">
<title></title>
<g id="icomoon-ignore">
</g>
<path d="M544 96v64h-64c-17.664 0-33.696 7.2-45.248 18.752s-18.752 27.584-18.752 45.248v96c0 17.664 14.336 32 32 32h87.008l-16 64h-71.008c-17.664 0-32 14.336-32 32v224h-64v-224c0-17.664-14.336-32-32-32h-64v-64h64c17.664 0 32-14.336 32-32v-96c0-35.36 14.304-67.296 37.504-90.496s55.136-37.504 90.496-37.504zM576 32h-96c-53.024 0-101.056 21.536-135.776 56.224s-56.224 82.752-56.224 135.776v64h-64c-17.664 0-32 14.336-32 32v128c0 17.664 14.336 32 32 32h64v224c0 17.664 14.336 32 32 32h128c17.664 0 32-14.336 32-32v-224h64c14.912 0 27.456-10.208 31.040-24.224l32-128c4.288-17.152-6.144-34.528-23.296-38.816-2.656-0.672-5.344-0.992-7.744-0.96h-96v-64h96c17.664 0 32-14.336 32-32v-128c0-17.664-14.336-32-32-32z"></path>
</svg>
