<!-- Generated by IcoMoon.io -->
<svg version="1.1" xmlns="http://www.w3.org/2000/svg" width="768" height="768" viewBox="0 0 768 768">
<title></title>
<g id="icomoon-ignore">
</g>
<path d="M224 32c-53.024 0-101.056 21.536-135.776 56.224s-56.224 82.752-56.224 135.776v320c0 53.024 21.536 101.056 56.224 135.776s82.752 56.224 135.776 56.224h320c53.024 0 101.056-21.536 135.776-56.224s56.224-82.752 56.224-135.776v-320c0-53.024-21.536-101.056-56.224-135.776s-82.752-56.224-135.776-56.224zM224 96h320c35.36 0 67.296 14.304 90.496 37.504s37.504 55.136 37.504 90.496v320c0 35.36-14.304 67.296-37.504 90.496s-55.136 37.504-90.496 37.504h-320c-35.36 0-67.296-14.304-90.496-37.504s-37.504-55.136-37.504-90.496v-320c0-35.36 14.304-67.296 37.504-90.496s55.136-37.504 90.496-37.504zM543.648 359.136c-4.8-31.104-18.272-59.424-38.208-82.144-24.128-27.552-57.728-46.88-96.288-52.608-14.848-2.368-31.040-2.464-47.264-0.064-43.712 6.464-80.672 30.112-105.024 62.944s-36.256 75.104-29.76 118.784 30.112 80.672 62.944 105.024 75.104 36.256 118.784 29.76 80.672-30.112 105.024-62.944 36.256-75.104 29.76-118.784zM480.352 368.544c3.904 26.24-3.2 51.488-17.856 71.264s-36.8 33.888-63.008 37.76-51.488-3.2-71.264-17.856-33.888-36.8-37.76-63.008 3.2-51.488 17.856-71.264 36.8-33.888 63.008-37.76c10.016-1.472 19.68-1.344 27.84-0.064 23.68 3.52 43.712 15.040 58.176 31.552 12 13.696 20.16 30.816 23.040 49.376zM560 240c17.664 0 32-14.336 32-32s-14.336-32-32-32-32 14.336-32 32 14.336 32 32 32z"></path>
</svg>
